<svg xmlns="http://www.w3.org/2000/svg" width="19" height="15" viewBox="0 0 19 15">
  <path fill="#FFF" fill-rule="evenodd" d="M573.579758,852.469891 L567.720333,846.418116 C567.180491,845.860628 566.280487,845.860628 565.740645,846.418116 C565.200803,846.975604 565.200803,847.905025 565.740645,848.462513 L569.20006,852.056691 L556.400006,852.056691 C555.620323,852.056691 555,852.697289 555,853.502458 C555,854.307626 555.620323,854.948225 556.400006,854.948225 L569.20006,854.948225 L565.739845,858.521542 C565.200003,859.07903 565.200003,860.008452 565.739845,860.565939 C566.019526,860.854762 566.379688,861 566.739849,861 C567.100011,861 567.460172,860.855584 567.739854,860.565939 L573.579678,854.535231 C573.839839,854.266566 574,853.894632 574,853.50254 C574,853.110448 573.860155,852.738514 573.579678,852.46985 L573.579758,852.469891 Z" transform="translate(-555 -846)"/>
</svg>
