<svg xmlns="http://www.w3.org/2000/svg" width="20" height="17" viewBox="0 0 20 17">
  <g fill="#09246D" fill-rule="evenodd">
    <path d="M10.6665342,8.10012256 L7.30267153,4.76383663 C6.99275113,4.4564989 6.47606403,4.4564989 6.16614362,4.76383663 C5.85622322,5.07117437 5.85622322,5.58355574 6.16614362,5.89089348 L8.15217402,7.87232918 L0.803735489,7.87232918 C0.356123713,7.87232918 0,8.2254852 0,8.66936688 C0,9.11324855 0.356123713,9.46640457 0.803735489,9.46640457 L8.15217402,9.46640457 L6.16568435,11.4363402 C5.85576394,11.7436779 5.85576394,12.2560593 6.16568435,12.563397 C6.32624773,12.7226224 6.53301443,12.8026905 6.73978112,12.8026905 C6.94654782,12.8026905 7.15331452,12.7230755 7.3138779,12.563397 L10.6664883,9.23872506 C10.8158453,9.09061268 10.9077926,8.88556904 10.9077926,8.66941242 C10.9077926,8.4532558 10.8275086,8.24821216 10.6664883,8.10009978 L10.6665342,8.10012256 Z"/>
    <path fill-rule="nonzero" d="M6.23214286,1.125 C4.98950217,1.125 3.98214286,2.13235931 3.98214286,3.375 L3.98214286,13.625 C3.98214286,14.8676407 4.98950217,15.875 6.23214286,15.875 L16.625,15.875 C17.8676407,15.875 18.875,14.8676407 18.875,13.625 L18.875,3.375 C18.875,2.13235931 17.8676407,1.125 16.625,1.125 L6.23214286,1.125 Z M6.23214286,0 L16.625,4.4408921e-16 C18.488961,1.01685123e-16 20,1.51103897 20,3.375 L20,13.625 C20,15.488961 18.488961,17 16.625,17 L6.23214286,17 C4.36818183,17 2.85714286,15.488961 2.85714286,13.625 L2.85714286,3.375 C2.85714286,1.51103897 4.36818183,-1.01685123e-16 6.23214286,0 Z"/>
    <ellipse cx="13.714" cy="8.5" fill-rule="nonzero" rx="1" ry="1"/>
    <ellipse cx="16" cy="8.5" fill-rule="nonzero" rx="1" ry="1"/>
  </g>
</svg>
